  <svg
                    xmlns="http://www.w3.org/2000/svg"
                    width="20"
                    height="20"
                    viewBox="0 0 16 16"
                    fill="none"
                  >
                    <path
                      d="M4.46017 10.8607C4.27272 11.0481 4.27272 11.352 4.46017 11.5395C4.64762 11.7269 4.95154 11.7269 5.13899 11.5395L4.46017 10.8607ZM8.33897 8.33946C8.52643 8.152 8.52643 7.84813 8.33897 7.66067C8.15151 7.47322 7.84764 7.47322 7.66019 7.66067L8.33897 8.33946ZM7.66019 7.66067C7.47273 7.84813 7.47273 8.152 7.66019 8.33946C7.84764 8.52691 8.15151 8.52691 8.33897 8.33946L7.66019 7.66067ZM11.539 5.13948C11.7264 4.95203 11.7264 4.64811 11.539 4.46066C11.3515 4.27321 11.0476 4.27321 10.8602 4.46066L11.539 5.13948ZM8.33897 7.66067C8.15151 7.47322 7.84764 7.47322 7.66019 7.66067C7.47273 7.84813 7.47273 8.152 7.66019 8.33946L8.33897 7.66067ZM10.8602 11.5395C11.0476 11.7269 11.3515 11.7269 11.539 11.5395C11.7264 11.352 11.7264 11.0481 11.539 10.8607L10.8602 11.5395ZM7.66019 8.33946C7.84764 8.52691 8.15151 8.52691 8.33897 8.33946C8.52643 8.152 8.52643 7.84813 8.33897 7.66067L7.66019 8.33946ZM5.13899 4.46066C4.95154 4.27321 4.64762 4.27321 4.46017 4.46066C4.27272 4.64811 4.27272 4.95203 4.46017 5.13948L5.13899 4.46066ZM5.13899 11.5395L8.33897 8.33946L7.66019 7.66067L4.46017 10.8607L5.13899 11.5395ZM8.33897 8.33946L11.539 5.13948L10.8602 4.46066L7.66019 7.66067L8.33897 8.33946ZM7.66019 8.33946L10.8602 11.5395L11.539 10.8607L8.33897 7.66067L7.66019 8.33946ZM8.33897 7.66067L5.13899 4.46066L4.46017 5.13948L7.66019 8.33946L8.33897 7.66067Z"
                      fill="#2C2C2C"
                    ></path>
                  </svg>