<svg width="36" height="25" viewBox="0 0 36 25" fill="none" xmlns="http://www.w3.org/2000/svg" class="needsclick">
                <path class="needsclick" opacity="0.5" d="M30.24 10.8594C30.4706 10.2623 30.6 9.60938 30.6 8.92857C30.6 5.97098 28.1812 3.57143 25.2 3.57143C24.0919 3.57143 23.0569 3.90625 22.2019 4.47545C20.6437 1.79687 17.7356 0 14.4 0C9.4275 0 5.4 3.99554 5.4 8.92857C5.4 9.07924 5.40562 9.22991 5.41125 9.38058C2.26125 10.4799 0 13.4598 0 16.9643C0 21.4007 3.62812 25 8.1 25H28.8C32.7769 25 36 21.8025 36 17.8571C36 14.4029 33.525 11.5179 30.24 10.8594ZM22.1287 14.2857H18.45V20.5357C18.45 21.0268 18.045 21.4286 17.55 21.4286H14.85C14.355 21.4286 13.95 21.0268 13.95 20.5357V14.2857H10.2712C9.46688 14.2857 9.0675 13.3259 9.63562 12.7623L15.5644 6.88058C15.9131 6.5346 16.4869 6.5346 16.8356 6.88058L22.7644 12.7623C23.3325 13.3259 22.9275 14.2857 22.1287 14.2857Z" fill="#1E2139"></path>
              </svg>