        <svg
          xmlns="http://www.w3.org/2000/svg"
          width="8"
          height="8"
          viewBox="0 0 10 10"
          fill="none"
          className="h-3 w-3"
        >
          <path
            d="M1.52174 4.47826C1.23359 4.47826 1 4.71186 1 5C1 5.28814 1.23359 5.52174 1.52174 5.52174V4.47826ZM5 5.52174C5.28814 5.52174 5.52174 5.28814 5.52174 5C5.52174 4.71186 5.28814 4.47826 5 4.47826V5.52174ZM5 4.47826C4.71186 4.47826 4.47826 4.71186 4.47826 5C4.47826 5.28814 4.71186 5.52174 5 5.52174V4.47826ZM8.47826 5.52174C8.7664 5.52174 9 5.28814 9 5C9 4.71186 8.7664 4.47826 8.47826 4.47826V5.52174ZM5.52174 5C5.52174 4.71186 5.28814 4.47826 5 4.47826C4.71186 4.47826 4.47826 4.71186 4.47826 5H5.52174ZM4.47826 8.47826C4.47826 8.7664 4.71186 9 5 9C5.28814 9 5.52174 8.7664 5.52174 8.47826H4.47826ZM4.47826 5C4.47826 5.28814 4.71186 5.52174 5 5.52174C5.28814 5.52174 5.52174 5.28814 5.52174 5H4.47826ZM5.52174 1.52174C5.52174 1.23359 5.28814 1 5 1C4.71186 1 4.47826 1.23359 4.47826 1.52174H5.52174ZM1.52174 5.52174H5V4.47826H1.52174V5.52174ZM5 5.52174H8.47826V4.47826H5V5.52174ZM5 5H4.47826V5.0007C4.47826 5.00077 4.47826 5.00153 4.47826 5.00153C4.47826 5.00146 4.47826 5.0016 4.47826 5.00153C4.47826 5.00153 4.47826 5.0023 4.47826 5.00237C4.47826 5.0023 4.47826 5.00243 4.47826 5.00237C4.47826 5.00243 4.47826 5.00299 4.47826 5.00306C4.47826 5.00313 4.47826 5.00376 4.47826 5.00383C4.47826 5.0039 4.47826 5.00445 4.47826 5.00452C4.47826 5.00459 4.47826 5.00522 4.47826 5.00536C4.47826 5.00543 4.47826 5.00605 4.47826 5.00619C4.47826 5.00626 4.47826 5.00703 4.47826 5.0071C4.47826 5.00696 4.47826 5.00723 4.47826 5.0071C4.47826 5.00723 4.47826 5.00765 4.47826 5.00779C4.47826 5.00765 4.47826 5.00793 4.47826 5.00779C4.47826 5.00793 4.47826 5.00842 4.47826 5.00849C4.47826 5.00835 4.47826 5.00863 4.47826 5.00849C4.47826 5.00863 4.47826 5.00911 4.47826 5.00925C4.47826 5.00911 4.47826 5.00939 4.47826 5.00925C4.47826 5.00939 4.47826 5.00995 4.47826 5.01009C4.47826 5.00995 4.47826 5.01023 4.47826 5.01009C4.47826 5.01023 4.47826 5.01078 4.47826 5.01092C4.47826 5.01071 4.47826 5.01106 4.47826 5.01092C4.47826 5.01106 4.47826 5.01169 4.47826 5.01183C4.47826 5.01169 4.47826 5.01197 4.47826 5.01183C4.47826 5.01197 4.47826 5.01259 4.47826 5.0128C4.47826 5.01259 4.47826 5.01294 4.47826 5.0128C4.47826 5.01294 4.47826 5.01363 4.47826 5.01377C4.47826 5.01363 4.47826 5.01391 4.47826 5.01377C4.47826 5.01398 4.47826 5.01461 4.47826 5.01482C4.47826 5.01461 4.47826 5.01503 4.47826 5.01482C4.47826 5.01496 4.47826 5.01572 4.47826 5.01593C4.47826 5.01572 4.47826 5.01607 4.47826 5.01593C4.47826 5.01614 4.47826 5.01683 4.47826 5.01704C4.47826 5.01683 4.47826 5.01725 4.47826 5.01704C4.47826 5.01725 4.47826 5.01809 4.47826 5.0183C4.47826 5.01809 4.47826 5.0185 4.47826 5.0183C4.47826 5.0185 4.47826 5.01934 4.47826 5.01955C4.47826 5.01934 4.47826 5.01976 4.47826 5.01955C4.47826 5.01976 4.47826 5.02059 4.47826 5.02087C4.47826 5.02066 4.47826 5.02108 4.47826 5.02087C4.47826 5.02115 4.47826 5.02198 4.47826 5.02219C4.47826 5.02247 4.47826 5.02268 4.47826 5.02296C4.47826 5.02317 4.47826 5.02337 4.47826 5.02365C4.47826 5.02393 4.47826 5.02414 4.47826 5.02442C4.47826 5.02463 4.47826 5.0249 4.47826 5.02511C4.47826 5.02539 4.47826 5.02567 4.47826 5.02595C4.47826 5.02616 4.47826 5.02643 4.47826 5.02671C4.47826 5.02699 4.47826 5.0272 4.47826 5.02748C4.47826 5.02776 4.47826 5.02803 4.47826 5.02831C4.47826 5.02859 4.47826 5.02887 4.47826 5.02915C4.47826 5.02943 4.47826 5.0297 4.47826 5.02998C4.47826 5.03026 4.47826 5.03061 4.47826 5.03089C4.47826 5.03117 4.47826 5.03144 4.47826 5.03172C4.47826 5.03207 4.47826 5.03235 4.47826 5.03263C4.47826 5.03297 4.47826 5.03325 4.47826 5.03353C4.47826 5.03388 4.47826 5.03416 4.47826 5.0345C4.47826 5.03478 4.47826 5.03513 4.47826 5.03541C4.47826 5.03576 4.47826 5.0361 4.47826 5.03638C4.47826 5.03673 4.47826 5.03708 4.47826 5.03743C4.47826 5.0377 4.47826 5.03805 4.47826 5.0384C4.47826 5.03875 4.47826 5.0391 4.47826 5.03944C4.47826 5.03972 4.47826 5.04007 4.47826 5.04042C4.47826 5.04077 4.47826 5.04118 4.47826 5.04153C4.47826 5.04188 4.47826 5.04223 4.47826 5.04257C4.47826 5.04292 4.47826 5.04327 4.47826 5.04369C4.47826 5.04404 4.47826 5.04438 4.47826 5.0448C4.47826 5.04515 4.47826 5.04557 4.47826 5.04591C4.47826 5.04626 4.47826 5.04668 4.47826 5.04703C4.47826 5.04744 4.47826 5.04786 4.47826 5.04821C4.47826 5.04863 4.47826 5.04904 4.47826 5.04939C4.47826 5.04981 4.47826 5.05023 4.47826 5.05064C4.47826 5.05099 4.47826 5.05141 4.47826 5.05183C4.47826 5.05224 4.47826 5.05266 4.47826 5.05308C4.47826 5.0535 4.47826 5.05391 4.47826 5.05433C4.47826 5.05475 4.47826 5.05523 4.47826 5.05565C4.47826 5.05607 4.47826 5.05649 4.47826 5.0569C4.47826 5.05739 4.47826 5.05781 4.47826 5.05823C4.47826 5.05871 4.47826 5.05913 4.47826 5.05962C4.47826 5.06003 4.47826 5.06052 4.47826 5.06094C4.47826 5.06143 4.47826 5.06191 4.47826 5.06233C4.47826 5.06282 4.47826 5.0633 4.47826 5.06379C4.47826 5.06421 4.47826 5.0647 4.47826 5.06518C4.47826 5.06567 4.47826 5.06616 4.47826 5.06664C4.47826 5.06713 4.47826 5.06762 4.47826 5.0681C4.47826 5.06859 4.47826 5.06908 4.47826 5.06957C4.47826 5.07012 4.47826 5.07061 4.47826 5.0711C4.47826 5.07165 4.47826 5.07214 4.47826 5.07263C4.47826 5.07318 4.47826 5.07367 4.47826 5.07423C4.47826 5.07471 4.47826 5.07527 4.47826 5.07576C4.47826 5.07631 4.47826 5.07687 4.47826 5.07736C4.47826 5.07791 4.47826 5.07847 4.47826 5.07903C4.47826 5.07958 4.47826 5.08007 4.47826 5.08063C4.47826 5.08118 4.47826 5.08174 4.47826 5.0823C4.47826 5.08285 4.47826 5.08348 4.47826 5.08403C4.47826 5.08459 4.47826 5.08515 4.47826 5.0857C4.47826 5.08633 4.47826 5.08689 4.47826 5.08744C4.47826 5.08807 4.47826 5.08863 4.47826 5.08925C4.47826 5.08981 4.47826 5.09044 4.47826 5.09099C4.47826 5.09162 4.47826 5.09224 4.47826 5.0928C4.47826 5.09343 4.47826 5.09405 4.47826 5.09468C4.47826 5.09523 4.47826 5.09586 4.47826 5.09649C4.47826 5.09711 4.47826 5.09774 4.47826 5.09837C4.47826 5.09899 4.47826 5.09962 4.47826 5.10031C4.47826 5.10094 4.47826 5.10157 4.47826 5.10219C4.47826 5.10289 4.47826 5.10351 4.47826 5.10414C4.47826 5.10483 4.47826 5.10546 4.47826 5.10616C4.47826 5.10678 4.47826 5.10748 4.47826 5.10817C4.47826 5.1088 4.47826 5.1095 4.47826 5.11019C4.47826 5.11089 4.47826 5.11151 4.47826 5.11221C4.47826 5.1129 4.47826 5.1136 4.47826 5.1143C4.47826 5.11499 4.47826 5.11569 4.47826 5.11638C4.47826 5.11715 4.47826 5.11784 4.47826 5.11854C4.47826 5.11923 4.47826 5.12 4.47826 5.1207C4.47826 5.12139 4.47826 5.12216 4.47826 5.12285C4.47826 5.12362 4.47826 5.12431 4.47826 5.12508C4.47826 5.12584 4.47826 5.12654 4.47826 5.1273C4.47826 5.12807 4.47826 5.12884 4.47826 5.1296C4.47826 5.13037 4.47826 5.13113 4.47826 5.1319C4.47826 5.13266 4.47826 5.13343 4.47826 5.13419C4.47826 5.13496 4.47826 5.13572 4.47826 5.13649C4.47826 5.13732 4.47826 5.13809 4.47826 5.13892C4.47826 5.13969 4.47826 5.14045 4.47826 5.14129C4.47826 5.14205 4.47826 5.14289 4.47826 5.14372C4.47826 5.14449 4.47826 5.14532 4.47826 5.14616C4.47826 5.14699 4.47826 5.14783 4.47826 5.14866C4.47826 5.1495 4.47826 5.15033 4.47826 5.15117C4.47826 5.152 4.47826 5.15283 4.47826 5.15367C4.47826 5.1545 4.47826 5.15534 4.47826 5.15624C4.47826 5.15708 4.47826 5.15798 4.47826 5.15882C4.47826 5.15972 4.47826 5.16056 4.47826 5.16146C4.47826 5.1623 4.47826 5.1632 4.47826 5.1641C4.47826 5.16494 4.47826 5.16584 4.47826 5.16675C4.47826 5.16765 4.47826 5.16856 4.47826 5.16946C4.47826 5.17037 4.47826 5.17127 4.47826 5.17217C4.47826 5.17308 4.47826 5.17405 4.47826 5.17496C4.47826 5.17586 4.47826 5.17683 4.47826 5.17774C4.47826 5.17871 4.47826 5.17962 4.47826 5.18059C4.47826 5.1815 4.47826 5.18247 4.47826 5.18344C4.47826 5.18435 4.47826 5.18532 4.47826 5.1863C4.47826 5.18727 4.47826 5.18824 4.47826 5.18922C4.47826 5.19019 4.47826 5.19117 4.47826 5.19214C4.47826 5.19311 4.47826 5.19416 4.47826 5.19513C4.47826 5.1961 4.47826 5.19715 4.47826 5.19812C4.47826 5.19917 4.47826 5.20014 4.47826 5.20118C4.47826 5.20216 4.47826 5.2032 4.47826 5.20424C4.47826 5.20529 4.47826 5.20626 4.47826 5.2073C4.47826 5.20835 4.47826 5.20939 4.47826 5.21043C4.47826 5.21148 4.47826 5.21252 4.47826 5.21364C4.47826 5.21468 4.47826 5.21572 4.47826 5.21677C4.47826 5.21788 4.47826 5.21892 4.47826 5.22004C4.47826 5.22108 4.47826 5.22219 4.47826 5.22323C4.47826 5.22435 4.47826 5.22546 4.47826 5.22657C4.47826 5.22762 4.47826 5.22873 4.47826 5.22984C4.47826 5.23096 4.47826 5.23207 4.47826 5.23318C4.47826 5.2343 4.47826 5.23548 4.47826 5.23659C4.47826 5.2377 4.47826 5.23889 4.47826 5.24C4.47826 5.24111 4.47826 5.2423 4.47826 5.24348C4.47826 5.24459 4.47826 5.24577 4.47826 5.24696C4.47826 5.24807 4.47826 5.24925 4.47826 5.25043C4.47826 5.25162 4.47826 5.2528 4.47826 5.25398C4.47826 5.25517 4.47826 5.25635 4.47826 5.25753C4.47826 5.25878 4.47826 5.25997 4.47826 5.26115C4.47826 5.2624 4.47826 5.26358 4.47826 5.26483C4.47826 5.26602 4.47826 5.26727 4.47826 5.26845C4.47826 5.2697 4.47826 5.27096 4.47826 5.27221C4.47826 5.27346 4.47826 5.27471 4.47826 5.27597C4.47826 5.27722 4.47826 5.27847 4.47826 5.27972C4.47826 5.28097 4.47826 5.28223 4.47826 5.28355C4.47826 5.2848 4.47826 5.28612 4.47826 5.28737C4.47826 5.2887 4.47826 5.28995 4.47826 5.29127C4.47826 5.29259 4.47826 5.29384 4.47826 5.29517C4.47826 5.29649 4.47826 5.29781 4.47826 5.29913C4.47826 5.30045 4.47826 5.30177 4.47826 5.30317C4.47826 5.30449 4.47826 5.30581 4.47826 5.30713C4.47826 5.30852 4.47826 5.30984 4.47826 5.31123C4.47826 5.31256 4.47826 5.31395 4.47826 5.31534C4.47826 5.31666 4.47826 5.31805 4.47826 5.31944C4.47826 5.32083 4.47826 5.32223 4.47826 5.32362C4.47826 5.32501 4.47826 5.3264 4.47826 5.32779C4.47826 5.32918 4.47826 5.33064 4.47826 5.33203C4.47826 5.3335 4.47826 5.33489 4.47826 5.33635C4.47826 5.33774 4.47826 5.3392 4.47826 5.34066C4.47826 5.34205 4.47826 5.34351 4.47826 5.34497C4.47826 5.34643 4.47826 5.3479 4.47826 5.34936C4.47826 5.35082 4.47826 5.35228 4.47826 5.35381C4.47826 5.35527 4.47826 5.35673 4.47826 5.35826C4.47826 5.35972 4.47826 5.36125 4.47826 5.36271C4.47826 5.36424 4.47826 5.36577 4.47826 5.3673C4.47826 5.36877 4.47826 5.3703 4.47826 5.37183C4.47826 5.37336 4.47826 5.37489 4.47826 5.37649C4.47826 5.37802 4.47826 5.37955 4.47826 5.38108C4.47826 5.38268 4.47826 5.38421 4.47826 5.38581C4.47826 5.38734 4.47826 5.38894 4.47826 5.39054C4.47826 5.39207 4.47826 5.39367 4.47826 5.39527C4.47826 5.39687 4.47826 5.39847 4.47826 5.40007C4.47826 5.40167 4.47826 5.40327 4.47826 5.40494C4.47826 5.40654 4.47826 5.40814 4.47826 5.40981C4.47826 5.41141 4.47826 5.41308 4.47826 5.41475C4.47826 5.41635 4.47826 5.41802 4.47826 5.41969C4.47826 5.42136 4.47826 5.42303 4.47826 5.4247C4.47826 5.42637 4.47826 5.42803 4.47826 5.4297C4.47826 5.43137 4.47826 5.43311 4.47826 5.43478C4.47826 5.43645 4.47826 5.43819 4.47826 5.43993C4.47826 5.4416 4.47826 5.44334 4.47826 5.44508C4.47826 5.44675 4.47826 5.44849 4.47826 5.45023C4.47826 5.45197 4.47826 5.4537 4.47826 5.45551C4.47826 5.45725 4.47826 5.45899 4.47826 5.46073C4.47826 5.46254 4.47826 5.46428 4.47826 5.46609C4.47826 5.46783 4.47826 5.46963 4.47826 5.47144C4.47826 5.47325 4.47826 5.47499 4.47826 5.4768C4.47826 5.47861 4.47826 5.48042 4.47826 5.4823C4.47826 5.4841 4.47826 5.48591 4.47826 5.48772C4.47826 5.4896 4.47826 5.49141 4.47826 5.49329C4.47826 5.4951 4.47826 5.49697 4.47826 5.49885C4.47826 5.50073 4.47826 5.50254 4.47826 5.50442C4.47826 5.5063 4.47826 5.50817 4.47826 5.51005C4.47826 5.512 4.47826 5.51388 4.47826 5.51576C4.47826 5.5177 4.47826 5.51958 4.47826 5.52153C4.47826 5.52341 4.47826 5.52536 4.47826 5.5273C4.47826 5.52918 4.47826 5.53113 4.47826 5.53308C4.47826 5.53503 4.47826 5.53697 4.47826 5.53892C4.47826 5.54094 4.47826 5.54289 4.47826 5.54484C4.47826 5.54685 4.47826 5.5488 4.47826 5.55082C4.47826 5.55276 4.47826 5.55478 4.47826 5.5568C4.47826 5.55882 4.47826 5.56077 4.47826 5.56278C4.47826 5.5648 4.47826 5.56689 4.47826 5.5689C4.47826 5.57092 4.47826 5.57294 4.47826 5.57503C4.47826 5.57704 4.47826 5.57913 4.47826 5.58115C4.47826 5.58323 4.47826 5.58532 4.47826 5.58734C4.47826 5.58943 4.47826 5.59151 4.47826 5.5936C4.47826 5.59569 4.47826 5.59777 4.47826 5.59993C4.47826 5.60202 4.47826 5.6041 4.47826 5.60626C4.47826 5.60835 4.47826 5.6105 4.47826 5.61266C4.47826 5.61475 4.47826 5.6169 4.47826 5.61906C4.47826 5.62122 4.47826 5.62337 4.47826 5.62553C4.47826 5.62769 4.47826 5.62984 4.47826 5.63207C4.47826 5.63423 4.47826 5.63638 4.47826 5.63861C4.47826 5.64077 4.47826 5.64299 4.47826 5.64522C4.47826 5.64744 4.47826 5.64967 4.47826 5.6519C4.47826 5.65405 4.47826 5.65635 4.47826 5.65857C4.47826 5.6608 4.47826 5.66303 4.47826 5.66532C4.47826 5.66755 4.47826 5.66984 4.47826 5.67207C4.47826 5.67437 4.47826 5.67666 4.47826 5.67896C4.47826 5.68118 4.47826 5.68348 4.47826 5.68577C4.47826 5.68814 4.47826 5.69043 4.47826 5.69273C4.47826 5.69503 4.47826 5.69739 4.47826 5.69969C4.47826 5.70205 4.47826 5.70435 4.47826 5.70671C4.47826 5.70908 4.47826 5.71144 4.47826 5.71381C4.47826 5.71617 4.47826 5.71854 4.47826 5.7209C4.47826 5.72327 4.47826 5.7257 4.47826 5.72807C4.47826 5.73044 4.47826 5.73287 4.47826 5.7353C4.47826 5.73767 4.47826 5.7401 4.47826 5.74254C4.47826 5.74497 4.47826 5.74741 4.47826 5.74984C4.47826 5.75228 4.47826 5.75471 4.47826 5.75722C4.47826 5.75965 4.47826 5.76209 4.47826 5.76459C4.47826 5.7671 4.47826 5.76953 4.47826 5.77204C4.47826 5.77454 4.47826 5.77704 4.47826 5.77955C4.47826 5.78205 4.47826 5.78456 4.47826 5.78706C4.47826 5.78957 4.47826 5.79214 4.47826 5.79464C4.47826 5.79722 4.47826 5.79972 4.47826 5.8023C4.47826 5.80487 4.47826 5.80744 4.47826 5.81002C4.47826 5.81259 4.47826 5.81517 4.47826 5.81774C4.47826 5.82031 4.47826 5.82289 4.47826 5.82553C4.47826 5.8281 4.47826 5.83075 4.47826 5.83339C4.47826 5.83597 4.47826 5.83861 4.47826 5.84125C4.47826 5.8439 4.47826 5.84654 4.47826 5.84918C4.47826 5.85183 4.47826 5.85447 4.47826 5.85718C4.47826 5.85983 4.47826 5.86254 4.47826 5.86518C4.47826 5.8679 4.47826 5.87061 4.47826 5.87332C4.47826 5.87597 4.47826 5.87868 4.47826 5.88146C4.47826 5.88417 4.47826 5.88689 4.47826 5.8896C4.47826 5.89238 4.47826 5.8951 4.47826 5.89788C4.47826 5.90059 4.47826 5.90337 4.47826 5.90616C4.47826 5.90894 4.47826 5.91172 4.47826 5.9145C4.47826 5.91729 4.47826 5.92007 4.47826 5.92285C4.47826 5.9257 4.47826 5.92849 4.47826 5.93134C4.47826 5.93412 4.47826 5.93697 4.47826 5.93983C4.47826 5.94261 4.47826 5.94546 4.47826 5.94831C4.47826 5.95124 4.47826 5.95409 4.47826 5.95694C4.47826 5.95979 4.47826 5.96271 4.47826 5.96556C4.47826 5.96849 4.47826 5.97141 4.47826 5.97426C4.47826 5.97718 4.47826 5.9801 4.47826 5.98303C4.47826 5.98595 4.47826 5.98887 4.47826 5.99186C4.47826 5.99478 4.47826 5.9977 4.47826 6.0007C4.47826 6.00369 4.47826 6.00661 4.47826 6.0096C4.47826 6.01259 4.47826 6.01558 4.47826 6.01857C4.47826 6.02157 4.47826 6.02456 4.47826 6.02755C4.47826 6.03061 4.47826 6.0336 4.47826 6.03666C4.47826 6.03965 4.47826 6.04271 4.47826 6.04577C4.47826 6.04883 4.47826 6.0519 4.47826 6.05496C4.47826 6.05802 4.47826 6.06108 4.47826 6.06414C4.47826 6.06727 4.47826 6.07033 4.47826 6.07346C4.47826 6.07652 4.47826 6.07965 4.47826 6.08278C4.47826 6.08591 4.47826 6.08904 4.47826 6.09217C4.47826 6.0953 4.47826 6.09843 4.47826 6.10163C4.47826 6.10477 4.47826 6.10797 4.47826 6.1111C4.47826 6.1143 4.47826 6.1175 4.47826 6.12063C4.47826 6.12383 4.47826 6.12703 4.47826 6.1303C4.47826 6.1335 4.47826 6.1367 4.47826 6.1399C4.47826 6.14317 4.47826 6.14637 4.47826 6.14964C4.47826 6.1529 4.47826 6.15617 4.47826 6.15944C4.47826 6.16264 4.47826 6.16598 4.47826 6.16925C4.47826 6.17252 4.47826 6.17579 4.47826 6.17913C4.47826 6.1824 4.47826 6.18574 4.47826 6.18908C4.47826 6.19235 4.47826 6.19569 4.47826 6.19903C4.47826 6.20237 4.47826 6.2057 4.47826 6.20911C4.47826 6.21245 4.47826 6.21579 4.47826 6.2192C4.47826 6.22261 4.47826 6.22595 4.47826 6.22936C4.47826 6.23277 4.47826 6.23617 4.47826 6.23958C4.47826 6.24299 4.47826 6.2464 4.47826 6.24988C4.47826 6.25329 4.47826 6.2567 4.47826 6.26017C4.47826 6.26365 4.47826 6.26706 4.47826 6.27054C4.47826 6.27402 4.47826 6.2775 4.47826 6.28097C4.47826 6.28452 4.47826 6.288 4.47826 6.29148C4.47826 6.29503 4.47826 6.2985 4.47826 6.30205C4.47826 6.3056 4.47826 6.30915 4.47826 6.3127C4.47826 6.31624 4.47826 6.31979 4.47826 6.32334C4.47826 6.32689 4.47826 6.3305 4.47826 6.33405C4.47826 6.33767 4.47826 6.34129 4.47826 6.34483C4.47826 6.34845 4.47826 6.35207 4.47826 6.35569C4.47826 6.3593 4.47826 6.36299 4.47826 6.36661C4.47826 6.37023 4.47826 6.37391 4.47826 6.3776C4.47826 6.38122 4.47826 6.3849 4.47826 6.38859C4.47826 6.39228 4.47826 6.39597 4.47826 6.39965C4.47826 6.40341 4.47826 6.4071 4.47826 6.41078C4.47826 6.41454 4.47826 6.4183 4.47826 6.42198C4.47826 6.42574 4.47826 6.4295 4.47826 6.43325C4.47826 6.43701 4.47826 6.44083 4.47826 6.44459C4.47826 6.44835 4.47826 6.45217 4.47826 6.45593C4.47826 6.45976 4.47826 6.46358 4.47826 6.46741C4.47826 6.47123 4.47826 6.47506 4.47826 6.47889C4.47826 6.48271 4.47826 6.48661 4.47826 6.49043C4.47826 6.49433 4.47826 6.49816 4.47826 6.50205C4.47826 6.50595 4.47826 6.50984 4.47826 6.51374C4.47826 6.51763 4.47826 6.52153 4.47826 6.5255C4.47826 6.52939 4.47826 6.53329 4.47826 6.53725C4.47826 6.54122 4.47826 6.54518 4.47826 6.54908C4.47826 6.55304 4.47826 6.55708 4.47826 6.56104C4.47826 6.56501 4.47826 6.56897 4.47826 6.57301C4.47826 6.57697 4.47826 6.58101 4.47826 6.58504C4.47826 6.58908 4.47826 6.59311 4.47826 6.59715C4.47826 6.60118 4.47826 6.60522 4.47826 6.60932C4.47826 6.61336 4.47826 6.61746 4.47826 6.6215C4.47826 6.6256 4.47826 6.6297 4.47826 6.63381C4.47826 6.63791 4.47826 6.64202 4.47826 6.64612C4.47826 6.6503 4.47826 6.6544 4.47826 6.65857C4.47826 6.66268 4.47826 6.66685 4.47826 6.67103C4.47826 6.6752 4.47826 6.67937 4.47826 6.68355C4.47826 6.68772 4.47826 6.69197 4.47826 6.69614C4.47826 6.70038 4.47826 6.70456 4.47826 6.7088C4.47826 6.71304 4.47826 6.71729 4.47826 6.72153C4.47826 6.72577 4.47826 6.73009 4.47826 6.73433C4.47826 6.73857 4.47826 6.74289 4.47826 6.7472C4.47826 6.75144 4.47826 6.75576 4.47826 6.76007C4.47826 6.76438 4.47826 6.7687 4.47826 6.77308C4.47826 6.77739 4.47826 6.7817 4.47826 6.78609C4.47826 6.79047 4.47826 6.79478 4.47826 6.79917C4.47826 6.80355 4.47826 6.80793 4.47826 6.81238C4.47826 6.81677 4.47826 6.82115 4.47826 6.8256C4.47826 6.82998 4.47826 6.83444 4.47826 6.83889C4.47826 6.84334 4.47826 6.84779 4.47826 6.85224C4.47826 6.8567 4.47826 6.86115 4.47826 6.86567C4.47826 6.87012 4.47826 6.87464 4.47826 6.87917C4.47826 6.88362 4.47826 6.88814 4.47826 6.89273C4.47826 6.89725 4.47826 6.90177 4.47826 6.9063C4.47826 6.91089 4.47826 6.91541 4.47826 6.92C4.47826 6.92459 4.47826 6.92918 4.47826 6.93377C4.47826 6.93837 4.47826 6.94296 4.47826 6.94755C4.47826 6.95214 4.47826 6.9568 4.47826 6.96146C4.47826 6.96605 4.47826 6.97071 4.47826 6.97537C4.47826 6.98003 4.47826 6.9847 4.47826 6.98936C4.47826 6.99409 4.47826 6.99875 4.47826 7.00348C4.47826 7.00814 4.47826 7.01287 4.47826 7.0176C4.47826 7.02233 4.47826 7.02706 4.47826 7.03179C4.47826 7.03659 4.47826 7.04132 4.47826 7.04612C4.47826 7.05085 4.47826 7.05565 4.47826 7.06045C4.47826 7.06525 4.47826 7.07005 4.47826 7.07485C4.47826 7.07965 4.47826 7.08445 4.47826 7.08932C4.47826 7.09412 4.47826 7.09899 4.47826 7.10386C4.47826 7.10873 4.47826 7.1136 4.47826 7.11847C4.47826 7.12334 4.47826 7.12821 4.47826 7.13315C4.47826 7.13802 4.47826 7.14296 4.47826 7.1479C4.47826 7.15283 4.47826 7.15777 4.47826 7.16271C4.47826 7.16765 4.47826 7.17259 4.47826 7.1776C4.47826 7.18254 4.47826 7.18755 4.47826 7.19256C4.47826 7.1975 4.47826 7.2025 4.47826 7.20758C4.47826 7.21259 4.47826 7.2176 4.47826 7.22261C4.47826 7.22769 4.47826 7.2327 4.47826 7.23777C4.47826 7.24285 4.47826 7.24793 4.47826 7.25301C4.47826 7.25809 4.47826 7.26317 4.47826 7.26831C4.47826 7.27339 4.47826 7.27854 4.47826 7.28369C4.47826 7.28877 4.47826 7.29391 4.47826 7.29906C4.47826 7.30428 4.47826 7.30943 4.47826 7.31457C4.47826 7.31979 4.47826 7.32494 4.47826 7.33016C4.47826 7.33537 4.47826 7.34059 4.47826 7.34581C4.47826 7.35103 4.47826 7.35624 4.47826 7.36153C4.47826 7.36675 4.47826 7.37204 4.47826 7.37732C4.47826 7.38254 4.47826 7.38783 4.47826 7.39311C4.47826 7.3984 4.47826 7.40376 4.47826 7.40904C4.47826 7.4144 4.47826 7.41969 4.47826 7.42504C4.47826 7.4304 4.47826 7.43576 4.47826 7.44111C4.47826 7.44647 4.47826 7.45183 4.47826 7.45725C4.47826 7.46261 4.47826 7.46804 4.47826 7.47346C4.47826 7.47882 4.47826 7.48424 4.47826 7.48974C4.47826 7.49517 4.47826 7.50059 4.47826 7.50609C4.47826 7.51151 4.47826 7.51701 4.47826 7.52244C4.47826 7.52793 4.47826 7.53343 4.47826 7.53892C4.47826 7.54449 4.47826 7.54998 4.47826 7.55555C4.47826 7.56104 4.47826 7.56661 4.47826 7.57217C4.47826 7.57767 4.47826 7.58324 4.47826 7.58887C4.47826 7.59444 4.47826 7.6 4.47826 7.60563C4.47826 7.6112 4.47826 7.61684 4.47826 7.62247C4.47826 7.6281 4.47826 7.63374 4.47826 7.63937C4.47826 7.64501 4.47826 7.65071 4.47826 7.65635C4.47826 7.66205 4.47826 7.66776 4.47826 7.67346C4.47826 7.67917 4.47826 7.68487 4.47826 7.69057C4.47826 7.69628 4.47826 7.70205 4.47826 7.70776C4.47826 7.71353 4.47826 7.7193 4.47826 7.72508C4.47826 7.73085 4.47826 7.73663 4.47826 7.7424C4.47826 7.74824 4.47826 7.75402 4.47826 7.75986C4.47826 7.7657 4.47826 7.77155 4.47826 7.77739C4.47826 7.78324 4.47826 7.78908 4.47826 7.79492C4.47826 7.80084 4.47826 7.80668 4.47826 7.81259C4.47826 7.8185 4.47826 7.82442 4.47826 7.83033C4.47826 7.83624 4.47826 7.84216 4.47826 7.84814C4.47826 7.85405 4.47826 7.86003 4.47826 7.86602C4.47826 7.872 4.47826 7.87798 4.47826 7.88397C4.47826 7.88995 4.47826 7.89593 4.47826 7.90198C4.47826 7.90797 4.47826 7.91402 4.47826 7.92007C4.47826 7.92612 4.47826 7.93217 4.47826 7.93823C4.47826 7.94435 4.47826 7.9504 4.47826 7.95652C4.47826 7.96257 4.47826 7.9687 4.47826 7.97482C4.47826 7.98094 4.47826 7.98706 4.47826 7.99325C4.47826 7.99937 4.47826 8.0055 4.47826 8.01169C4.47826 8.01788 4.47826 8.02407 4.47826 8.03026C4.47826 8.03645 4.47826 8.04264 4.47826 8.0489C4.47826 8.0551 4.47826 8.06136 4.47826 8.06762C4.47826 8.07381 4.47826 8.08007 4.47826 8.0864C4.47826 8.09266 4.47826 8.09892 4.47826 8.10525C4.47826 8.11151 4.47826 8.11784 4.47826 8.12417C4.47826 8.1305 4.47826 8.13683 4.47826 8.14316C4.47826 8.1495 4.47826 8.1559 4.47826 8.16223C4.47826 8.16863 4.47826 8.17503 4.47826 8.18143C4.47826 8.18783 4.47826 8.19423 4.47826 8.2007C4.47826 8.2071 4.47826 8.21357 4.47826 8.21997C4.47826 8.22644 4.47826 8.23291 4.47826 8.23937C4.47826 8.24584 4.47826 8.25238 4.47826 8.25885C4.47826 8.26539 4.47826 8.27186 4.47826 8.2784C4.47826 8.28494 4.47826 8.29148 4.47826 8.29802C4.47826 8.30463 4.47826 8.31117 4.47826 8.31777C4.47826 8.32431 4.47826 8.33092 4.47826 8.33753C4.47826 8.34414 4.47826 8.35075 4.47826 8.35743C4.47826 8.36403 4.47826 8.37071 4.47826 8.37732C4.47826 8.384 4.47826 8.39068 4.47826 8.39736C4.47826 8.40403 4.47826 8.41078 4.47826 8.41746C4.47826 8.42421 4.47826 8.43089 4.47826 8.43764C4.47826 8.44438 4.47826 8.45113 4.47826 8.45795C4.47826 8.4647 4.47826 8.47144 4.47826 8.47826H5.52174C5.52174 8.47144 5.52174 8.4647 5.52174 8.45795C5.52174 8.45113 5.52174 8.44438 5.52174 8.43764C5.52174 8.43089 5.52174 8.42421 5.52174 8.41746C5.52174 8.41078 5.52174 8.40403 5.52174 8.39736C5.52174 8.39068 5.52174 8.384 5.52174 8.37732C5.52174 8.37071 5.52174 8.36403 5.52174 8.35743C5.52174 8.35075 5.52174 8.34414 5.52174 8.33753C5.52174 8.33092 5.52174 8.32431 5.52174 8.31777C5.52174 8.31117 5.52174 8.30463 5.52174 8.29802C5.52174 8.29148 5.52174 8.28494 5.52174 8.2784C5.52174 8.27186 5.52174 8.26539 5.52174 8.25885C5.52174 8.25238 5.52174 8.24584 5.52174 8.23937C5.52174 8.23291 5.52174 8.22644 5.52174 8.21997C5.52174 8.21357 5.52174 8.2071 5.52174 8.2007C5.52174 8.19423 5.52174 8.18783 5.52174 8.18143C5.52174 8.17503 5.52174 8.16863 5.52174 8.16223C5.52174 8.1559 5.52174 8.1495 5.52174 8.14316C5.52174 8.13683 5.52174 8.1305 5.52174 8.12417C5.52174 8.11784 5.52174 8.11151 5.52174 8.10525C5.52174 8.09892 5.52174 8.09266 5.52174 8.0864C5.52174 8.08007 5.52174 8.07381 5.52174 8.06762C5.52174 8.06136 5.52174 8.0551 5.52174 8.0489C5.52174 8.04264 5.52174 8.03645 5.52174 8.03026C5.52174 8.02407 5.52174 8.01788 5.52174 8.01169C5.52174 8.0055 5.52174 7.99937 5.52174 7.99325C5.52174 7.98706 5.52174 7.98094 5.52174 7.97482C5.52174 7.9687 5.52174 7.96257 5.52174 7.95652C5.52174 7.9504 5.52174 7.94435 5.52174 7.93823C5.52174 7.93217 5.52174 7.92612 5.52174 7.92007C5.52174 7.91402 5.52174 7.90797 5.52174 7.90198C5.52174 7.89593 5.52174 7.88995 5.52174 7.88397C5.52174 7.87798 5.52174 7.872 5.52174 7.86602C5.52174 7.86003 5.52174 7.85405 5.52174 7.84814C5.52174 7.84216 5.52174 7.83624 5.52174 7.83033C5.52174 7.82442 5.52174 7.8185 5.52174 7.81259C5.52174 7.80668 5.52174 7.80084 5.52174 7.79492C5.52174 7.78908 5.52174 7.78324 5.52174 7.77739C5.52174 7.77155 5.52174 7.7657 5.52174 7.75986C5.52174 7.75402 5.52174 7.74824 5.52174 7.7424C5.52174 7.73663 5.52174 7.73085 5.52174 7.72508C5.52174 7.7193 5.52174 7.71353 5.52174 7.70776C5.52174 7.70205 5.52174 7.69628 5.52174 7.69057C5.52174 7.68487 5.52174 7.67917 5.52174 7.67346C5.52174 7.66776 5.52174 7.66205 5.52174 7.65635C5.52174 7.65071 5.52174 7.64501 5.52174 7.63937C5.52174 7.63374 5.52174 7.6281 5.52174 7.62247C5.52174 7.61684 5.52174 7.6112 5.52174 7.60563C5.52174 7.6 5.52174 7.59444 5.52174 7.58887C5.52174 7.58324 5.52174 7.57767 5.52174 7.57217C5.52174 7.56661 5.52174 7.56104 5.52174 7.55555C5.52174 7.54998 5.52174 7.54449 5.52174 7.53892C5.52174 7.53343 5.52174 7.52793 5.52174 7.52244C5.52174 7.51701 5.52174 7.51151 5.52174 7.50609C5.52174 7.50059 5.52174 7.49517 5.52174 7.48974C5.52174 7.48424 5.52174 7.47882 5.52174 7.47346C5.52174 7.46804 5.52174 7.46261 5.52174 7.45725C5.52174 7.45183 5.52174 7.44647 5.52174 7.44111C5.52174 7.43576 5.52174 7.4304 5.52174 7.42504C5.52174 7.41969 5.52174 7.4144 5.52174 7.40904C5.52174 7.40376 5.52174 7.3984 5.52174 7.39311C5.52174 7.38783 5.52174 7.38254 5.52174 7.37732C5.52174 7.37204 5.52174 7.36675 5.52174 7.36153C5.52174 7.35624 5.52174 7.35103 5.52174 7.34581C5.52174 7.34059 5.52174 7.33537 5.52174 7.33016C5.52174 7.32494 5.52174 7.31979 5.52174 7.31457C5.52174 7.30943 5.52174 7.30428 5.52174 7.29906C5.52174 7.29391 5.52174 7.28877 5.52174 7.28369C5.52174 7.27854 5.52174 7.27339 5.52174 7.26831C5.52174 7.26317 5.52174 7.25809 5.52174 7.25301C5.52174 7.24793 5.52174 7.24285 5.52174 7.23777C5.52174 7.2327 5.52174 7.22769 5.52174 7.22261C5.52174 7.2176 5.52174 7.21259 5.52174 7.20758C5.52174 7.2025 5.52174 7.1975 5.52174 7.19256C5.52174 7.18755 5.52174 7.18254 5.52174 7.1776C5.52174 7.17259 5.52174 7.16765 5.52174 7.16271C5.52174 7.15777 5.52174 7.15283 5.52174 7.1479C5.52174 7.14296 5.52174 7.13802 5.52174 7.13315C5.52174 7.12821 5.52174 7.12334 5.52174 7.11847C5.52174 7.1136 5.52174 7.10873 5.52174 7.10386C5.52174 7.09899 5.52174 7.09412 5.52174 7.08932C5.52174 7.08445 5.52174 7.07965 5.52174 7.07485C5.52174 7.07005 5.52174 7.06525 5.52174 7.06045C5.52174 7.05565 5.52174 7.05085 5.52174 7.04612C5.52174 7.04132 5.52174 7.03659 5.52174 7.03179C5.52174 7.02706 5.52174 7.02233 5.52174 7.0176C5.52174 7.01287 5.52174 7.00814 5.52174 7.00348C5.52174 6.99875 5.52174 6.99409 5.52174 6.98936C5.52174 6.9847 5.52174 6.98003 5.52174 6.97537C5.52174 6.97071 5.52174 6.96605 5.52174 6.96146C5.52174 6.9568 5.52174 6.95214 5.52174 6.94755C5.52174 6.94296 5.52174 6.93837 5.52174 6.93377C5.52174 6.92918 5.52174 6.92459 5.52174 6.92C5.52174 6.91541 5.52174 6.91089 5.52174 6.9063C5.52174 6.90177 5.52174 6.89725 5.52174 6.89273C5.52174 6.88814 5.52174 6.88362 5.52174 6.87917C5.52174 6.87464 5.52174 6.87012 5.52174 6.86567C5.52174 6.86115 5.52174 6.8567 5.52174 6.85224C5.52174 6.84779 5.52174 6.84334 5.52174 6.83889C5.52174 6.83444 5.52174 6.82998 5.52174 6.8256C5.52174 6.82115 5.52174 6.81677 5.52174 6.81238C5.52174 6.80793 5.52174 6.80355 5.52174 6.79917C5.52174 6.79478 5.52174 6.79047 5.52174 6.78609C5.52174 6.7817 5.52174 6.77739 5.52174 6.77308C5.52174 6.7687 5.52174 6.76438 5.52174 6.76007C5.52174 6.75576 5.52174 6.75144 5.52174 6.7472C5.52174 6.74289 5.52174 6.73857 5.52174 6.73433C5.52174 6.73009 5.52174 6.72577 5.52174 6.72153C5.52174 6.71729 5.52174 6.71304 5.52174 6.7088C5.52174 6.70456 5.52174 6.70038 5.52174 6.69614C5.52174 6.69197 5.52174 6.68772 5.52174 6.68355C5.52174 6.67937 5.52174 6.6752 5.52174 6.67103C5.52174 6.66685 5.52174 6.66268 5.52174 6.65857C5.52174 6.6544 5.52174 6.6503 5.52174 6.64612C5.52174 6.64202 5.52174 6.63791 5.52174 6.63381C5.52174 6.6297 5.52174 6.6256 5.52174 6.6215C5.52174 6.61746 5.52174 6.61336 5.52174 6.60932C5.52174 6.60522 5.52174 6.60118 5.52174 6.59715C5.52174 6.59311 5.52174 6.58908 5.52174 6.58504C5.52174 6.58101 5.52174 6.57697 5.52174 6.57301C5.52174 6.56897 5.52174 6.56501 5.52174 6.56104C5.52174 6.55708 5.52174 6.55304 5.52174 6.54908C5.52174 6.54518 5.52174 6.54122 5.52174 6.53725C5.52174 6.53329 5.52174 6.52939 5.52174 6.5255C5.52174 6.52153 5.52174 6.51763 5.52174 6.51374C5.52174 6.50984 5.52174 6.50595 5.52174 6.50205C5.52174 6.49816 5.52174 6.49433 5.52174 6.49043C5.52174 6.48661 5.52174 6.48271 5.52174 6.47889C5.52174 6.47506 5.52174 6.47123 5.52174 6.46741C5.52174 6.46358 5.52174 6.45976 5.52174 6.45593C5.52174 6.45217 5.52174 6.44835 5.52174 6.44459C5.52174 6.44083 5.52174 6.43701 5.52174 6.43325C5.52174 6.4295 5.52174 6.42574 5.52174 6.42198C5.52174 6.4183 5.52174 6.41454 5.52174 6.41078C5.52174 6.4071 5.52174 6.40341 5.52174 6.39965C5.52174 6.39597 5.52174 6.39228 5.52174 6.38859C5.52174 6.3849 5.52174 6.38122 5.52174 6.3776C5.52174 6.37391 5.52174 6.37023 5.52174 6.36661C5.52174 6.36299 5.52174 6.3593 5.52174 6.35569C5.52174 6.35207 5.52174 6.34845 5.52174 6.34483C5.52174 6.34129 5.52174 6.33767 5.52174 6.33405C5.52174 6.3305 5.52174 6.32689 5.52174 6.32334C5.52174 6.31979 5.52174 6.31624 5.52174 6.3127C5.52174 6.30915 5.52174 6.3056 5.52174 6.30205C5.52174 6.2985 5.52174 6.29503 5.52174 6.29148C5.52174 6.288 5.52174 6.28452 5.52174 6.28097C5.52174 6.2775 5.52174 6.27402 5.52174 6.27054C5.52174 6.26706 5.52174 6.26365 5.52174 6.26017C5.52174 6.2567 5.52174 6.25329 5.52174 6.24988C5.52174 6.2464 5.52174 6.24299 5.52174 6.23958C5.52174 6.23617 5.52174 6.23277 5.52174 6.22936C5.52174 6.22595 5.52174 6.22261 5.52174 6.2192C5.52174 6.21579 5.52174 6.21245 5.52174 6.20911C5.52174 6.2057 5.52174 6.20237 5.52174 6.19903C5.52174 6.19569 5.52174 6.19235 5.52174 6.18908C5.52174 6.18574 5.52174 6.1824 5.52174 6.17913C5.52174 6.17579 5.52174 6.17252 5.52174 6.16925C5.52174 6.16598 5.52174 6.16264 5.52174 6.15944C5.52174 6.15617 5.52174 6.1529 5.52174 6.14964C5.52174 6.14637 5.52174 6.14317 5.52174 6.1399C5.52174 6.1367 5.52174 6.1335 5.52174 6.1303C5.52174 6.12703 5.52174 6.12383 5.52174 6.12063C5.52174 6.1175 5.52174 6.1143 5.52174 6.1111C5.52174 6.10797 5.52174 6.10477 5.52174 6.10163C5.52174 6.09843 5.52174 6.0953 5.52174 6.09217C5.52174 6.08904 5.52174 6.08591 5.52174 6.08278C5.52174 6.07965 5.52174 6.07652 5.52174 6.07346C5.52174 6.07033 5.52174 6.06727 5.52174 6.06414C5.52174 6.06108 5.52174 6.05802 5.52174 6.05496C5.52174 6.0519 5.52174 6.04883 5.52174 6.04577C5.52174 6.04271 5.52174 6.03965 5.52174 6.03666C5.52174 6.0336 5.52174 6.03061 5.52174 6.02755C5.52174 6.02456 5.52174 6.02157 5.52174 6.01857C5.52174 6.01558 5.52174 6.01259 5.52174 6.0096C5.52174 6.00661 5.52174 6.00369 5.52174 6.0007C5.52174 5.9977 5.52174 5.99478 5.52174 5.99186C5.52174 5.98887 5.52174 5.98595 5.52174 5.98303C5.52174 5.9801 5.52174 5.97718 5.52174 5.97426C5.52174 5.97141 5.52174 5.96849 5.52174 5.96556C5.52174 5.96271 5.52174 5.95979 5.52174 5.95694C5.52174 5.95409 5.52174 5.95124 5.52174 5.94831C5.52174 5.94546 5.52174 5.94261 5.52174 5.93983C5.52174 5.93697 5.52174 5.93412 5.52174 5.93134C5.52174 5.92849 5.52174 5.9257 5.52174 5.92285C5.52174 5.92007 5.52174 5.91729 5.52174 5.9145C5.52174 5.91172 5.52174 5.90894 5.52174 5.90616C5.52174 5.90337 5.52174 5.90059 5.52174 5.89788C5.52174 5.8951 5.52174 5.89238 5.52174 5.8896C5.52174 5.88689 5.52174 5.88417 5.52174 5.88146C5.52174 5.87868 5.52174 5.87597 5.52174 5.87332C5.52174 5.87061 5.52174 5.8679 5.52174 5.86518C5.52174 5.86254 5.52174 5.85983 5.52174 5.85718C5.52174 5.85447 5.52174 5.85183 5.52174 5.84918C5.52174 5.84654 5.52174 5.8439 5.52174 5.84125C5.52174 5.83861 5.52174 5.83597 5.52174 5.83339C5.52174 5.83075 5.52174 5.8281 5.52174 5.82553C5.52174 5.82289 5.52174 5.82031 5.52174 5.81774C5.52174 5.81517 5.52174 5.81259 5.52174 5.81002C5.52174 5.80744 5.52174 5.80487 5.52174 5.8023C5.52174 5.79972 5.52174 5.79722 5.52174 5.79464C5.52174 5.79214 5.52174 5.78957 5.52174 5.78706C5.52174 5.78456 5.52174 5.78205 5.52174 5.77955C5.52174 5.77704 5.52174 5.77454 5.52174 5.77204C5.52174 5.76953 5.52174 5.7671 5.52174 5.76459C5.52174 5.76209 5.52174 5.75965 5.52174 5.75722C5.52174 5.75471 5.52174 5.75228 5.52174 5.74984C5.52174 5.74741 5.52174 5.74497 5.52174 5.74254C5.52174 5.7401 5.52174 5.73767 5.52174 5.7353C5.52174 5.73287 5.52174 5.73044 5.52174 5.72807C5.52174 5.7257 5.52174 5.72327 5.52174 5.7209C5.52174 5.71854 5.52174 5.71617 5.52174 5.71381C5.52174 5.71144 5.52174 5.70908 5.52174 5.70671C5.52174 5.70435 5.52174 5.70205 5.52174 5.69969C5.52174 5.69739 5.52174 5.69503 5.52174 5.69273C5.52174 5.69043 5.52174 5.68814 5.52174 5.68577C5.52174 5.68348 5.52174 5.68118 5.52174 5.67896C5.52174 5.67666 5.52174 5.67437 5.52174 5.67207C5.52174 5.66984 5.52174 5.66755 5.52174 5.66532C5.52174 5.66303 5.52174 5.6608 5.52174 5.65857C5.52174 5.65635 5.52174 5.65405 5.52174 5.6519C5.52174 5.64967 5.52174 5.64744 5.52174 5.64522C5.52174 5.64299 5.52174 5.64077 5.52174 5.63861C5.52174 5.63638 5.52174 5.63423 5.52174 5.63207C5.52174 5.62984 5.52174 5.62769 5.52174 5.62553C5.52174 5.62337 5.52174 5.62122 5.52174 5.61906C5.52174 5.6169 5.52174 5.61475 5.52174 5.61266C5.52174 5.6105 5.52174 5.60835 5.52174 5.60626C5.52174 5.6041 5.52174 5.60202 5.52174 5.59993C5.52174 5.59777 5.52174 5.59569 5.52174 5.5936C5.52174 5.59151 5.52174 5.58943 5.52174 5.58734C5.52174 5.58532 5.52174 5.58323 5.52174 5.58115C5.52174 5.57913 5.52174 5.57704 5.52174 5.57503C5.52174 5.57294 5.52174 5.57092 5.52174 5.5689C5.52174 5.56689 5.52174 5.5648 5.52174 5.56278C5.52174 5.56077 5.52174 5.55882 5.52174 5.5568C5.52174 5.55478 5.52174 5.55276 5.52174 5.55082C5.52174 5.5488 5.52174 5.54685 5.52174 5.54484C5.52174 5.54289 5.52174 5.54094 5.52174 5.53892C5.52174 5.53697 5.52174 5.53503 5.52174 5.53308C5.52174 5.53113 5.52174 5.52918 5.52174 5.5273C5.52174 5.52536 5.52174 5.52341 5.52174 5.52153C5.52174 5.51958 5.52174 5.5177 5.52174 5.51576C5.52174 5.51388 5.52174 5.512 5.52174 5.51005C5.52174 5.50817 5.52174 5.5063 5.52174 5.50442C5.52174 5.50254 5.52174 5.50073 5.52174 5.49885C5.52174 5.49697 5.52174 5.4951 5.52174 5.49329C5.52174 5.49141 5.52174 5.4896 5.52174 5.48772C5.52174 5.48591 5.52174 5.4841 5.52174 5.4823C5.52174 5.48042 5.52174 5.47861 5.52174 5.4768C5.52174 5.47499 5.52174 5.47325 5.52174 5.47144C5.52174 5.46963 5.52174 5.46783 5.52174 5.46609C5.52174 5.46428 5.52174 5.46254 5.52174 5.46073C5.52174 5.45899 5.52174 5.45725 5.52174 5.45551C5.52174 5.4537 5.52174 5.45197 5.52174 5.45023C5.52174 5.44849 5.52174 5.44675 5.52174 5.44508C5.52174 5.44334 5.52174 5.4416 5.52174 5.43993C5.52174 5.43819 5.52174 5.43645 5.52174 5.43478C5.52174 5.43311 5.52174 5.43137 5.52174 5.4297C5.52174 5.42803 5.52174 5.42637 5.52174 5.4247C5.52174 5.42303 5.52174 5.42136 5.52174 5.41969C5.52174 5.41802 5.52174 5.41635 5.52174 5.41475C5.52174 5.41308 5.52174 5.41141 5.52174 5.40981C5.52174 5.40814 5.52174 5.40654 5.52174 5.40494C5.52174 5.40327 5.52174 5.40167 5.52174 5.40007C5.52174 5.39847 5.52174 5.39687 5.52174 5.39527C5.52174 5.39367 5.52174 5.39207 5.52174 5.39054C5.52174 5.38894 5.52174 5.38734 5.52174 5.38581C5.52174 5.38421 5.52174 5.38268 5.52174 5.38108C5.52174 5.37955 5.52174 5.37802 5.52174 5.37649C5.52174 5.37489 5.52174 5.37336 5.52174 5.37183C5.52174 5.3703 5.52174 5.36877 5.52174 5.3673C5.52174 5.36577 5.52174 5.36424 5.52174 5.36271C5.52174 5.36125 5.52174 5.35972 5.52174 5.35826C5.52174 5.35673 5.52174 5.35527 5.52174 5.35381C5.52174 5.35228 5.52174 5.35082 5.52174 5.34936C5.52174 5.3479 5.52174 5.34643 5.52174 5.34497C5.52174 5.34351 5.52174 5.34205 5.52174 5.34066C5.52174 5.3392 5.52174 5.33774 5.52174 5.33635C5.52174 5.33489 5.52174 5.3335 5.52174 5.33203C5.52174 5.33064 5.52174 5.32918 5.52174 5.32779C5.52174 5.3264 5.52174 5.32501 5.52174 5.32362C5.52174 5.32223 5.52174 5.32083 5.52174 5.31944C5.52174 5.31805 5.52174 5.31666 5.52174 5.31534C5.52174 5.31395 5.52174 5.31256 5.52174 5.31123C5.52174 5.30984 5.52174 5.30852 5.52174 5.30713C5.52174 5.30581 5.52174 5.30449 5.52174 5.30317C5.52174 5.30177 5.52174 5.30045 5.52174 5.29913C5.52174 5.29781 5.52174 5.29649 5.52174 5.29517C5.52174 5.29384 5.52174 5.29259 5.52174 5.29127C5.52174 5.28995 5.52174 5.2887 5.52174 5.28737C5.52174 5.28612 5.52174 5.2848 5.52174 5.28355C5.52174 5.28223 5.52174 5.28097 5.52174 5.27972C5.52174 5.27847 5.52174 5.27722 5.52174 5.27597C5.52174 5.27471 5.52174 5.27346 5.52174 5.27221C5.52174 5.27096 5.52174 5.2697 5.52174 5.26845C5.52174 5.26727 5.52174 5.26602 5.52174 5.26483C5.52174 5.26358 5.52174 5.2624 5.52174 5.26115C5.52174 5.25997 5.52174 5.25878 5.52174 5.25753C5.52174 5.25635 5.52174 5.25517 5.52174 5.25398C5.52174 5.2528 5.52174 5.25162 5.52174 5.25043C5.52174 5.24925 5.52174 5.24807 5.52174 5.24696C5.52174 5.24577 5.52174 5.24459 5.52174 5.24348C5.52174 5.2423 5.52174 5.24111 5.52174 5.24C5.52174 5.23889 5.52174 5.2377 5.52174 5.23659C5.52174 5.23548 5.52174 5.2343 5.52174 5.23318C5.52174 5.23207 5.52174 5.23096 5.52174 5.22984C5.52174 5.22873 5.52174 5.22762 5.52174 5.22657C5.52174 5.22546 5.52174 5.22435 5.52174 5.22323C5.52174 5.22219 5.52174 5.22108 5.52174 5.22004C5.52174 5.21892 5.52174 5.21788 5.52174 5.21677C5.52174 5.21572 5.52174 5.21468 5.52174 5.21364C5.52174 5.21252 5.52174 5.21148 5.52174 5.21043C5.52174 5.20939 5.52174 5.20835 5.52174 5.2073C5.52174 5.20626 5.52174 5.20529 5.52174 5.20424C5.52174 5.2032 5.52174 5.20216 5.52174 5.20118C5.52174 5.20014 5.52174 5.19917 5.52174 5.19812C5.52174 5.19715 5.52174 5.1961 5.52174 5.19513C5.52174 5.19416 5.52174 5.19311 5.52174 5.19214C5.52174 5.19117 5.52174 5.19019 5.52174 5.18922C5.52174 5.18824 5.52174 5.18727 5.52174 5.1863C5.52174 5.18532 5.52174 5.18435 5.52174 5.18344C5.52174 5.18247 5.52174 5.1815 5.52174 5.18059C5.52174 5.17962 5.52174 5.17871 5.52174 5.17774C5.52174 5.17683 5.52174 5.17586 5.52174 5.17496C5.52174 5.17405 5.52174 5.17308 5.52174 5.17217C5.52174 5.17127 5.52174 5.17037 5.52174 5.16946C5.52174 5.16856 5.52174 5.16765 5.52174 5.16675C5.52174 5.16584 5.52174 5.16494 5.52174 5.1641C5.52174 5.1632 5.52174 5.1623 5.52174 5.16146C5.52174 5.16056 5.52174 5.15972 5.52174 5.15882C5.52174 5.15798 5.52174 5.15708 5.52174 5.15624C5.52174 5.15534 5.52174 5.1545 5.52174 5.15367C5.52174 5.15283 5.52174 5.152 5.52174 5.15117C5.52174 5.15033 5.52174 5.1495 5.52174 5.14866C5.52174 5.14783 5.52174 5.14699 5.52174 5.14616C5.52174 5.14532 5.52174 5.14449 5.52174 5.14372C5.52174 5.14289 5.52174 5.14205 5.52174 5.14129C5.52174 5.14045 5.52174 5.13969 5.52174 5.13892C5.52174 5.13809 5.52174 5.13732 5.52174 5.13649C5.52174 5.13572 5.52174 5.13496 5.52174 5.13419C5.52174 5.13343 5.52174 5.13266 5.52174 5.1319C5.52174 5.13113 5.52174 5.13037 5.52174 5.1296C5.52174 5.12884 5.52174 5.12807 5.52174 5.1273C5.52174 5.12654 5.52174 5.12584 5.52174 5.12508C5.52174 5.12431 5.52174 5.12362 5.52174 5.12285C5.52174 5.12216 5.52174 5.12139 5.52174 5.1207C5.52174 5.12 5.52174 5.11923 5.52174 5.11854C5.52174 5.11784 5.52174 5.11715 5.52174 5.11638C5.52174 5.11569 5.52174 5.11499 5.52174 5.1143C5.52174 5.1136 5.52174 5.1129 5.52174 5.11221C5.52174 5.11151 5.52174 5.11089 5.52174 5.11019C5.52174 5.1095 5.52174 5.1088 5.52174 5.10817C5.52174 5.10748 5.52174 5.10678 5.52174 5.10616C5.52174 5.10546 5.52174 5.10483 5.52174 5.10414C5.52174 5.10351 5.52174 5.10289 5.52174 5.10219C5.52174 5.10157 5.52174 5.10094 5.52174 5.10031C5.52174 5.09962 5.52174 5.09899 5.52174 5.09837C5.52174 5.09774 5.52174 5.09711 5.52174 5.09649C5.52174 5.09586 5.52174 5.09523 5.52174 5.09468C5.52174 5.09405 5.52174 5.09343 5.52174 5.0928C5.52174 5.09224 5.52174 5.09162 5.52174 5.09099C5.52174 5.09044 5.52174 5.08981 5.52174 5.08925C5.52174 5.08863 5.52174 5.08807 5.52174 5.08744C5.52174 5.08689 5.52174 5.08633 5.52174 5.0857C5.52174 5.08515 5.52174 5.08459 5.52174 5.08403C5.52174 5.08348 5.52174 5.08285 5.52174 5.0823C5.52174 5.08174 5.52174 5.08118 5.52174 5.08063C5.52174 5.08007 5.52174 5.07958 5.52174 5.07903C5.52174 5.07847 5.52174 5.07791 5.52174 5.07736C5.52174 5.07687 5.52174 5.07631 5.52174 5.07576C5.52174 5.07527 5.52174 5.07471 5.52174 5.07423C5.52174 5.07367 5.52174 5.07318 5.52174 5.07263C5.52174 5.07214 5.52174 5.07165 5.52174 5.0711C5.52174 5.07061 5.52174 5.07012 5.52174 5.06957C5.52174 5.06908 5.52174 5.06859 5.52174 5.0681C5.52174 5.06762 5.52174 5.06713 5.52174 5.06664C5.52174 5.06616 5.52174 5.06567 5.52174 5.06518C5.52174 5.0647 5.52174 5.06421 5.52174 5.06379C5.52174 5.0633 5.52174 5.06282 5.52174 5.06233C5.52174 5.06191 5.52174 5.06143 5.52174 5.06094C5.52174 5.06052 5.52174 5.06003 5.52174 5.05962C5.52174 5.05913 5.52174 5.05871 5.52174 5.05823C5.52174 5.05781 5.52174 5.05739 5.52174 5.0569C5.52174 5.05649 5.52174 5.05607 5.52174 5.05565C5.52174 5.05523 5.52174 5.05475 5.52174 5.05433C5.52174 5.05391 5.52174 5.0535 5.52174 5.05308C5.52174 5.05266 5.52174 5.05224 5.52174 5.05183C5.52174 5.05141 5.52174 5.05099 5.52174 5.05064C5.52174 5.05023 5.52174 5.04981 5.52174 5.04939C5.52174 5.04904 5.52174 5.04863 5.52174 5.04821C5.52174 5.04786 5.52174 5.04744 5.52174 5.04703C5.52174 5.04668 5.52174 5.04626 5.52174 5.04591C5.52174 5.04557 5.52174 5.04515 5.52174 5.0448C5.52174 5.04438 5.52174 5.04404 5.52174 5.04369C5.52174 5.04327 5.52174 5.04292 5.52174 5.04257C5.52174 5.04223 5.52174 5.04188 5.52174 5.04153C5.52174 5.04118 5.52174 5.04077 5.52174 5.04042C5.52174 5.04007 5.52174 5.03972 5.52174 5.03944C5.52174 5.0391 5.52174 5.03875 5.52174 5.0384C5.52174 5.03805 5.52174 5.0377 5.52174 5.03743C5.52174 5.03708 5.52174 5.03673 5.52174 5.03638C5.52174 5.0361 5.52174 5.03576 5.52174 5.03541C5.52174 5.03513 5.52174 5.03478 5.52174 5.0345C5.52174 5.03416 5.52174 5.03388 5.52174 5.03353C5.52174 5.03325 5.52174 5.03297 5.52174 5.03263C5.52174 5.03235 5.52174 5.03207 5.52174 5.03172C5.52174 5.03144 5.52174 5.03117 5.52174 5.03089C5.52174 5.03061 5.52174 5.03026 5.52174 5.02998C5.52174 5.0297 5.52174 5.02943 5.52174 5.02915C5.52174 5.02887 5.52174 5.02859 5.52174 5.02831C5.52174 5.02803 5.52174 5.02776 5.52174 5.02748C5.52174 5.0272 5.52174 5.02699 5.52174 5.02671C5.52174 5.02643 5.52174 5.02616 5.52174 5.02595C5.52174 5.02567 5.52174 5.02539 5.52174 5.02511C5.52174 5.0249 5.52174 5.02463 5.52174 5.02442C5.52174 5.02414 5.52174 5.02393 5.52174 5.02365C5.52174 5.02337 5.52174 5.02317 5.52174 5.02296C5.52174 5.02268 5.52174 5.02247 5.52174 5.02219C5.52174 5.02198 5.52174 5.02177 5.52174 5.0215C5.52174 5.0217 5.52174 5.02129 5.52174 5.0215C5.52174 5.02122 5.52174 5.02038 5.52174 5.02017C5.52174 5.02038 5.52174 5.01997 5.52174 5.02017C5.52174 5.01997 5.52174 5.01913 5.52174 5.01892C5.52174 5.01913 5.52174 5.01871 5.52174 5.01892C5.52174 5.01871 5.52174 5.01788 5.52174 5.01767C5.52174 5.01788 5.52174 5.01746 5.52174 5.01767C5.52174 5.01746 5.52174 5.0167 5.52174 5.01649C5.52174 5.01663 5.52174 5.01628 5.52174 5.01649C5.52174 5.01628 5.52174 5.01551 5.52174 5.01537C5.52174 5.01558 5.52174 5.01517 5.52174 5.01537C5.52174 5.01517 5.52174 5.01447 5.52174 5.01426C5.52174 5.0144 5.52174 5.01412 5.52174 5.01426C5.52174 5.01412 5.52174 5.01343 5.52174 5.01329C5.52174 5.01343 5.52174 5.01308 5.52174 5.01329C5.52174 5.01308 5.52174 5.01245 5.52174 5.01231C5.52174 5.01245 5.52174 5.01217 5.52174 5.01231C5.52174 5.01217 5.52174 5.01155 5.52174 5.01141C5.52174 5.01155 5.52174 5.0112 5.52174 5.01141C5.52174 5.01127 5.52174 5.01064 5.52174 5.0105C5.52174 5.01064 5.52174 5.01036 5.52174 5.0105C5.52174 5.01036 5.52174 5.00981 5.52174 5.00967C5.52174 5.00981 5.52174 5.00953 5.52174 5.00967C5.52174 5.00953 5.52174 5.00904 5.52174 5.0089C5.52174 5.00904 5.52174 5.00877 5.52174 5.0089C5.52174 5.00884 5.52174 5.00828 5.52174 5.00814C5.52174 5.008 5.52174 5.00723 5.52174 5.0071C5.52174 5.00703 5.52174 5.00626 5.52174 5.00619C5.52174 5.00612 5.52174 5.00543 5.52174 5.00536C5.52174 5.00529 5.52174 5.00466 5.52174 5.00452C5.52174 5.00445 5.52174 5.00397 5.52174 5.00383C5.52174 5.00376 5.52174 5.00313 5.52174 5.00306C5.52174 5.00313 5.52174 5.00299 5.52174 5.00306C5.52174 5.00299 5.52174 5.00243 5.52174 5.00237C5.52174 5.0023 5.52174 5.0016 5.52174 5.00153C5.52174 5.00153 5.52174 5.0009 5.52174 5.00083C5.52174 5.00077 5.52174 5 5.52174 5H5ZM5.52174 5V1.52174H4.47826V5H5.52174Z"
            fill="black"
          ></path>
        </svg>