<svg width="23" height="24" viewBox="0 0 23 24" fill="none" xmlns="http://www.w3.org/2000/svg">
    <g id="SVGRepo_iconCarrier">
    <path id="Vector" fill-rule="evenodd" clip-rule="evenodd" d="M11.5 23.5C17.8513 23.5 23 18.3513 23 12C23 9.65732 22.2995 7.47825 21.0965 5.66083L11.9536 15.8197C11.0686 16.803 9.57924 16.9483 8.52078 16.1544L4.34444 13.0222C3.77988 12.5988 3.66547 11.7979 4.08889 11.2333C4.51231 10.6688 5.31322 10.5543 5.87778 10.9778L10.0541 14.11L19.4401 3.68109C17.376 1.71027 14.5793 0.5 11.5 0.5C5.14873 0.5 0 5.64873 0 12C0 18.3513 5.14873 23.5 11.5 23.5Z" fill="#6EC172"></path>
    </g>
    </svg>