<?xml version="1.0" standalone="no"?>
<!DOCTYPE svg PUBLIC "-//W3C//DTD SVG 20010904//EN"
 "http://www.w3.org/TR/2001/REC-SVG-20010904/DTD/svg10.dtd">
<svg version="1.0" xmlns="http://www.w3.org/2000/svg"
 width="250.000000pt" height="66.000000pt" viewBox="0 0 250.000000 66.000000"
 preserveAspectRatio="xMidYMid meet">

<g transform="translate(0.000000,66.000000) scale(0.100000,-0.100000)"
fill="#000000" stroke="none">
<path d="M128 639 c-48 -25 -69 -67 -76 -146 -4 -58 -7 -63 -28 -63 -15 0 -24
-6 -24 -15 0 -9 9 -15 25 -15 l25 0 0 -174 c0 -160 -2 -175 -21 -200 l-20 -26
91 0 92 0 -31 26 -31 26 0 174 0 174 55 0 c42 0 55 3 55 15 0 12 -13 15 -56
15 l-56 0 3 85 c3 70 8 88 26 106 23 24 65 28 88 9 17 -14 20 -56 5 -65 -29
-18 8 -39 44 -25 29 11 41 42 26 70 -27 50 -125 65 -192 29z"/>
<path d="M1941 634 l24 -26 0 -285 0 -285 -24 -19 -23 -19 87 0 87 0 -23 19
-24 19 -3 311 -3 311 -61 0 -61 0 24 -26z"/>
<path d="M1252 536 c-15 -57 -59 -106 -96 -106 -16 0 -26 -6 -26 -15 0 -10 10
-15 30 -15 l30 0 0 -150 c0 -170 10 -209 59 -234 71 -37 140 -1 166 87 16 54
5 64 -14 12 -17 -47 -37 -65 -71 -65 -52 0 -60 26 -60 197 l0 153 65 0 c51 0
65 3 65 15 0 12 -14 15 -65 15 l-64 0 -3 78 -3 77 -13 -49z"/>
<path d="M386 415 c-128 -45 -187 -167 -137 -281 29 -64 52 -88 114 -114 107
-47 254 6 302 107 20 42 21 129 2 174 -43 103 -170 154 -281 114z m114 -35
c62 -44 101 -129 101 -219 0 -63 -19 -97 -72 -123 -65 -33 -136 8 -187 107
-33 64 -37 166 -9 209 37 56 109 67 167 26z"/>
<path d="M713 399 c20 -16 59 -64 86 -106 l50 -75 -62 -80 c-34 -44 -78 -93
-97 -109 l-35 -29 53 0 c48 0 53 2 47 20 -3 10 -1 29 6 42 16 29 89 122 99
126 15 6 103 -147 97 -168 -5 -19 0 -20 76 -20 l81 0 -37 28 c-33 24 -157 195
-157 216 0 14 99 134 133 161 l32 25 -53 0 c-49 0 -52 -1 -47 -23 4 -16 -5
-38 -35 -80 -23 -31 -44 -57 -48 -57 -13 1 -74 112 -74 136 0 23 -3 24 -77 24
l-76 0 38 -31z"/>
<path d="M1563 418 c-74 -25 -109 -103 -63 -140 25 -21 43 -22 71 -8 25 14 25
30 0 30 -42 0 -39 79 4 98 47 22 94 15 126 -18 27 -26 30 -35 27 -82 l-3 -52
-86 -17 c-132 -26 -179 -59 -179 -124 0 -111 162 -142 242 -46 32 37 38 38 38
6 0 -54 73 -82 130 -50 l25 14 -26 1 c-47 0 -54 21 -54 164 0 149 -12 183 -73
212 -43 20 -137 27 -179 12z m167 -238 c0 -87 -42 -140 -110 -140 -48 0 -69
17 -76 61 -8 50 32 95 101 114 84 22 85 22 85 -35z"/>
<path d="M2255 417 c-89 -41 -138 -117 -139 -218 -1 -56 3 -72 27 -108 32 -49
110 -91 167 -91 82 0 155 41 180 99 18 44 6 62 -14 21 -21 -45 -62 -70 -115
-70 -85 0 -153 48 -167 118 -9 43 21 58 139 71 54 6 112 18 128 26 35 19 48
59 28 93 -31 56 -166 89 -234 59z m139 -38 c30 -23 36 -78 12 -99 -8 -6 -48
-16 -88 -22 -40 -6 -86 -17 -101 -25 -16 -8 -31 -12 -34 -9 -14 14 22 113 53
144 27 27 39 32 82 32 35 0 57 -6 76 -21z"/>
</g>
</svg>
